<svg version="1.2" xmlns="http://www.w3.org/2000/svg" viewBox="0 0 575 74" width="575" height="74">
        <title>Final Logo_280624-ai</title>
        <defs>
                <linearGradient id="g1" x2="1" gradientUnits="userSpaceOnUse" gradientTransform="matrix(6.141,12.282,-12.189,6.095,423.285,20.687)">
                        <stop offset="0" stop-color="#fefefe" stop-opacity="1"/>
                        <stop offset="1" stop-color="#fefefe" stop-opacity="0"/>
                </linearGradient>
                <linearGradient id="g2" x2="1" gradientUnits="userSpaceOnUse" gradientTransform="matrix(-13.322,-49.717,49.718,-13.322,400.7,68.346)">
                        <stop offset="0" stop-color="#61ba45"/>
                        <stop offset="1" stop-color="#dde358"/>
                </linearGradient>
        </defs>
        <style>
                tspan { white-space:pre } 
                .s0 { fill: #fefefe } 
                .s1 { fill: #1aa056 } 
                .s2 { fill: url(#g1) } 
                .s3 { fill: url(#g2) } 
        </style>
        <g id="Layer 1">
                <g id="&lt;Group&gt;">
                        <path id="&lt;Compound Path&gt;" class="s0" d="m39.2 49.6l24.1-46.2q0.4-0.8 0.8-1.2 0.5-0.5 1-0.7 0.5-0.2 1.1-0.2 0.7-0.1 1.6-0.1h9.9v71.2h-11.6v-46q0-1.2 0.1-2.8 0-1.5 0.2-3.1l-21.5 40.4q-0.8 1.4-2 2.1-1.1 0.8-2.7 0.8h-1.8q-1.6 0-2.8-0.8-1.2-0.7-1.9-2.1l-21.8-40.5q0.2 1.6 0.2 3.2 0.1 1.5 0.1 2.8v46h-11.6v-71.2h9.9q0.9 0 1.6 0.1 0.6 0 1.1 0.2 0.5 0.2 1 0.7 0.4 0.4 0.8 1.2z"/>
                        <path id="&lt;Path&gt;" class="s0" d="m573.2 42.6q-1.4-3.1-3.7-5.3-2.3-2.1-5.3-3.5-2.9-1.4-6-2.5-3.1-1-6-2-3-0.9-5.3-2.1-2.3-1.2-3.7-2.8-1.4-1.7-1.4-4.2 0-2 0.7-3.6 0.7-1.7 2.1-2.9 1.4-1.1 3.4-1.8 2.1-0.7 4.8-0.7 3.1 0 5.3 0.8 2.3 0.8 3.9 1.7c1.1 0.6 6.5 3.5 8.7-1l2.6-4.8q-3.7-3.5-9-5.5-5.3-2-11.6-2-5.6 0-9.9 1.8-4.4 1.7-7.3 4.5-3 2.9-4.6 6.6-1.5 3.7-1.5 7.6 0 4.8 1.4 8.2 1.4 3.3 3.7 5.5 2.3 2.2 5.3 3.6 2.9 1.4 6 2.4 3 1 6 1.8 2.9 0.8 5.3 2 2.3 1.2 3.7 3 1.4 1.8 1.4 4.6 0 5-3.1 7.7-3.1 2.7-8.8 2.7c-5.8 0-8.3-1.3-8.3-1.3q-2.1-1-3.7-2c-1-0.7-6-3.9-8.6 0l-3.2 4.8q0 0 0 0 0.5 0.5 1 0.9 1.7 1.6 3.7 2.9 2.7 1.7 5.7 2.9 3 1.3 6.3 1.9 3.3 0.7 6.7 0.7 5.9 0 10.5-1.8 4.6-1.8 7.8-4.9 3.1-3.1 4.8-7.3 1.6-4.3 1.6-9.1 0-4.4-1.4-7.5z"/>
                        <path id="&lt;Path&gt;" class="s1" d="m406.5 36.8c0-6.8 5.6-12.4 12.4-12.4 5.1 0 9.5 3.1 11.4 7.5 0.6 1.5 1 3.2 1 4.9 0 6.9-5.6 12.4-12.4 12.4-6.8 0-12.4-5.5-12.4-12.4z"/>
                        <path id="&lt;Path&gt;" class="s2" d="m427 36.8c0 4.6-3.6 8.3-8.1 8.3-4.5 0-8.1-3.7-8.1-8.3 0-4.5 3.6-8.2 8.1-8.2 4.5 0 8.1 3.7 8.1 8.2z"/>
                        <path id="&lt;Compound Path&gt;" fill-rule="evenodd" class="s3" d="m418.9 57.8c-11.6 0-21-9.4-21-21 0-11.6 9.4-21 21-21 11.6 0 21 9.4 21 21 0 11.6-9.4 21-21 21zm0-8.6c6.8 0 12.4-5.5 12.4-12.4 0-1.7-0.4-3.4-1-4.9-1.9-4.4-6.3-7.5-11.4-7.5-6.8 0-12.4 5.6-12.4 12.4 0 6.9 5.6 12.4 12.4 12.4z"/>
                        <path id="&lt;Compound Path&gt;" fill-rule="evenodd" class="s0" d="m378.5 23.9q0 5.2-1.7 9.5-1.7 4.3-5.2 7.4-3.4 3.1-8.6 4.8-5.2 1.8-12.1 1.8h-10v21.7c0 2-1.6 2.9-2.2 3.1-0.4 0.1-1 0.2-1.5 0.2-0.1 0-9.5 0-9.5 0v-71.2h23.2q7.1 0 12.4 1.7 5.2 1.7 8.6 4.7 3.4 3 5 7.2 1.6 4.2 1.6 9.1zm-13.2 0q0-2.8-0.9-5.1-0.9-2.4-2.7-4-1.7-1.6-4.5-2.5-2.7-0.8-6.3-0.8h-10v25.5h10q3.6 0 6.3-0.9 2.8-0.9 4.5-2.6 1.8-1.7 2.7-4.1 0.9-2.5 0.9-5.5z"/>
                        <path id="&lt;Compound Path&gt;" fill-rule="evenodd" class="s0" d="m252.2 72.4h-11.9q-1.7 0-2.9-0.7-1.2-0.7-2-1.9l-15-22.8q-0.8-1.3-1.9-1.9-1-0.5-2.9-0.5h-5.7c0 0 0 24 0 24.5 0 2-1.7 2.9-2.3 3.1-0.3 0.1-1 0.2-1.4 0.2-0.6 0-9.5 0-9.5 0v-71.2h21.7q7.3 0 12.5 1.5 5.1 1.5 8.5 4.2 3.3 2.8 4.8 6.5 1.6 3.8 1.6 8.3 0 3.6-1.1 6.8-1 3.2-3 5.8-2 2.6-4.9 4.6-3 2-6.7 3.1 2.5 1.5 4.3 4.1zm-22.9-40.8q1.8-1.7 2.6-3.9 0.9-2.3 0.9-5 0-5.4-3.5-8.3-3.6-2.9-10.9-2.9h-8.5v23.6h8.3q3.7 0 6.5-0.9 2.8-1 4.6-2.6z"/>
                        <path id="&lt;Path&gt;" class="s0" d="m518.8 1.4c-0.4-0.1-1-0.2-1.5-0.2h-9.5v71.2h13.3c0 0 0-67.5 0-67.8 0-2.1-1.7-3-2.3-3.2z"/>
                        <path id="&lt;Path&gt;" class="s0" d="m135.1 1.2c0 0 0 7.4 0 7.6 0 2 1.7 2.9 2.3 3.1 0.3 0.1 1.7 0.2 1.8 0.2h17.4v60.3h13.2v-60.3c0 0 17.2 0 17.7 0 0.5 0 1.1-0.1 1.5-0.2 0.6-0.2 2.3-1.1 2.3-3.1 0-0.3 0-7.6 0-7.6z"/>
                        <path id="&lt;Path&gt;" class="s0" d="m499.9 61.7c-0.4-0.1-1-0.2-1.5-0.2-0.5 0-24.7 0-24.7 0 0 0 0-55.5 0-55.8 0-2.2-2.2-3.9-3.4-4.3-0.3-0.1-1-0.2-1.4-0.2-0.6 0-8.5 0-8.5 0v71.2h41.8c0 0 0-7.5 0-7.6 0-2-1.7-2.9-2.3-3.1z"/>
                        <path id="&lt;Path&gt;" class="s0" d="m84.8 1.2v71.2h44.9c0 0 0-7 0-7.2 0-2.1-1.7-3-2.3-3.2-0.3-0.1-0.9-0.2-1.4-0.2-0.5 0-8.7 0-8.7 0h-19.1v-20.1h24.8v-10.2h-24.8v-19.7c0 0 27.4 0 27.8 0 0.5 0 1.1-0.1 1.4-0.2 0.6-0.2 2.3-1.1 2.3-3.1 0-0.3 0-7.3 0-7.3z"/>
                        <g id="&lt;Group&gt;">
                                <g id="&lt;Group&gt;">
                                        <path id="&lt;Compound Path&gt;" fill-rule="evenodd" class="s0" d="m322.3 36.8c0 10.1-3.6 18.8-10.7 26-7.2 7.1-15.9 10.7-25.9 10.7-10.1 0-18.8-3.6-25.9-10.7-7.1-7.2-10.8-15.9-10.8-26 0-10 3.7-18.7 10.8-25.9 7.1-7.1 15.8-10.7 25.9-10.7 10.1 0 18.8 3.6 25.9 10.7 7.1 7.1 10.7 15.8 10.7 25.9zm-11.5 0c0-6.9-2.5-12.9-7.4-17.7-4.8-4.9-10.8-7.4-17.7-7.4-6.9 0-12.9 2.5-17.8 7.4-4.9 4.9-7.3 10.8-7.3 17.7 0 6.9 2.4 12.9 7.3 17.8 4.9 4.9 10.9 7.4 17.8 7.4 6.9 0 12.8-2.5 17.7-7.4 4.9-4.9 7.4-10.9 7.4-17.8z"/>
                                </g>
                        </g>
                        <g id="&lt;Group&gt;">
                                <g id="&lt;Group&gt;">
                                        <path id="&lt;Compound Path&gt;" fill-rule="evenodd" class="s0" d="m455.5 36.8c0 10.1-3.6 18.8-10.7 26-7.1 7.1-15.9 10.7-25.9 10.7-10.1 0-18.8-3.6-25.9-10.7-7.1-7.2-10.8-15.9-10.8-26 0-10 3.7-18.7 10.8-25.9 7.1-7.1 15.8-10.7 25.9-10.7 10.1 0 18.8 3.6 25.9 10.7 7.1 7.1 10.7 15.8 10.7 25.9zm-11.5 0c0-6.9-2.5-12.9-7.4-17.7-4.8-4.9-10.8-7.4-17.7-7.4-6.9 0-12.9 2.5-17.8 7.4-4.9 4.9-7.3 10.8-7.3 17.7 0 6.9 2.5 12.9 7.3 17.8 4.9 4.9 10.9 7.4 17.8 7.4 6.9 0 12.9-2.5 17.7-7.4 4.9-4.9 7.4-10.9 7.4-17.8z"/>
                                </g>
                        </g>
                </g>
        </g>
</svg>